<svg xmlns="http://www.w3.org/2000/svg" xmlns:xlink="http://www.w3.org/1999/xlink" width="40" zoomAndPan="magnify" viewBox="0 0 30 37.92" height="40" preserveAspectRatio="xMidYMid meet" version="1.0"><defs><clipPath id="0f9156a935"><path d="M 3.023438 0 L 27.722656 0 L 27.722656 29.9375 L 3.023438 29.9375 Z M 3.023438 0 " clip-rule="nonzero"/></clipPath></defs><g clip-path="url(#0f9156a935)"><path fill="#ffffff" d="M 3.03125 8.449219 C 3.035156 8.523438 3.039062 8.605469 3.046875 8.691406 C 3.050781 8.734375 3.058594 8.765625 3.0625 8.800781 L 3.082031 8.910156 C 3.113281 9.050781 3.148438 9.195312 3.199219 9.335938 C 3.296875 9.613281 3.433594 9.882812 3.609375 10.125 C 3.785156 10.367188 3.992188 10.585938 4.210938 10.785156 C 4.425781 10.984375 4.65625 11.160156 4.882812 11.332031 C 5.339844 11.679688 5.8125 12.003906 6.292969 12.316406 C 6.757812 12.605469 7.226562 12.886719 7.710938 13.144531 C 7.789062 13.476562 7.902344 13.800781 8.054688 14.113281 C 8.292969 14.617188 8.617188 15.046875 8.953125 15.425781 C 9.035156 15.523438 9.121094 15.617188 9.203125 15.707031 C 9.289062 15.796875 9.371094 15.886719 9.457031 15.972656 C 9.621094 16.148438 9.789062 16.316406 9.941406 16.484375 C 10.5625 17.144531 11.042969 17.878906 11.132812 18.667969 L 11.140625 18.757812 C 10.976562 18.8125 10.804688 18.859375 10.632812 18.929688 C 10.515625 18.980469 10.394531 19.039062 10.28125 19.136719 C 10.167969 19.234375 10.066406 19.367188 10.007812 19.535156 C 9.980469 19.621094 9.964844 19.710938 9.957031 19.800781 C 9.957031 19.890625 9.960938 19.984375 9.980469 20.074219 C 10.019531 20.253906 10.097656 20.421875 10.21875 20.566406 C 10.277344 20.640625 10.347656 20.707031 10.425781 20.765625 C 10.429688 20.769531 10.4375 20.773438 10.445312 20.78125 C 10.429688 20.796875 10.417969 20.8125 10.40625 20.832031 C 10.371094 20.875 10.335938 20.921875 10.300781 20.964844 C 10.160156 21.140625 10.007812 21.308594 9.855469 21.464844 C 9.542969 21.785156 9.210938 22.078125 8.867188 22.363281 C 8.523438 22.648438 8.167969 22.925781 7.804688 23.222656 C 7.445312 23.507812 7.085938 23.824219 6.761719 24.1875 C 6.4375 24.546875 6.148438 24.953125 5.902344 25.382812 C 5.78125 25.601562 5.671875 25.824219 5.574219 26.050781 C 5.527344 26.160156 5.480469 26.273438 5.4375 26.386719 L 5.375 26.558594 L 5.316406 26.734375 C 5.242188 26.964844 5.179688 27.199219 5.132812 27.441406 C 5.113281 27.5625 5.09375 27.683594 5.082031 27.804688 L 5.070312 27.898438 L 5.066406 27.988281 C 5.0625 28.050781 5.058594 28.113281 5.0625 28.175781 L 5.0625 28.363281 L 5.074219 28.550781 C 5.082031 28.613281 5.089844 28.675781 5.097656 28.738281 C 5.105469 28.800781 5.117188 28.863281 5.132812 28.929688 C 5.164062 29.058594 5.203125 29.191406 5.269531 29.324219 C 5.332031 29.453125 5.421875 29.585938 5.554688 29.699219 C 5.6875 29.8125 5.859375 29.886719 6.03125 29.921875 C 6.210938 29.953125 6.382812 29.941406 6.535156 29.90625 C 6.84375 29.835938 7.09375 29.699219 7.320312 29.550781 C 7.738281 29.269531 8.109375 28.9375 8.453125 28.574219 C 9.140625 27.855469 9.703125 27.011719 10.082031 26.097656 C 10.269531 25.644531 10.417969 25.171875 10.527344 24.699219 C 10.640625 24.226562 10.71875 23.75 10.773438 23.277344 C 10.824219 22.800781 10.855469 22.328125 10.863281 21.855469 C 10.867188 21.617188 10.867188 21.382812 10.859375 21.144531 C 10.859375 21.085938 10.855469 21.027344 10.855469 20.96875 C 10.984375 21.003906 11.121094 21.015625 11.25 21.007812 C 11.621094 20.984375 11.964844 20.808594 12.191406 20.53125 C 12.308594 20.394531 12.394531 20.230469 12.4375 20.054688 C 12.449219 20.011719 12.457031 19.96875 12.464844 19.925781 C 12.46875 19.878906 12.472656 19.835938 12.472656 19.792969 C 12.472656 19.703125 12.464844 19.621094 12.445312 19.542969 C 12.410156 19.390625 12.351562 19.253906 12.273438 19.132812 C 12.210938 19.03125 12.136719 18.945312 12.054688 18.867188 C 12.394531 18.621094 12.800781 18.425781 13.234375 18.277344 C 13.765625 18.09375 14.335938 17.980469 14.90625 17.878906 C 15.476562 17.769531 16.058594 17.675781 16.644531 17.496094 C 16.9375 17.402344 17.230469 17.285156 17.511719 17.128906 C 17.789062 16.96875 18.050781 16.773438 18.28125 16.546875 C 18.421875 16.414062 18.546875 16.269531 18.664062 16.121094 C 18.902344 16.132812 19.140625 16.144531 19.378906 16.152344 C 19.664062 16.160156 19.953125 16.171875 20.238281 16.171875 L 20.667969 16.175781 L 21.097656 16.171875 C 22.242188 16.164062 23.382812 16.097656 24.519531 15.964844 C 25.097656 15.902344 25.699219 15.800781 26.28125 15.554688 C 26.570312 15.429688 26.859375 15.261719 27.105469 15.03125 C 27.355469 14.804688 27.550781 14.511719 27.664062 14.191406 C 27.777344 13.871094 27.796875 13.523438 27.742188 13.207031 C 27.6875 12.886719 27.570312 12.589844 27.421875 12.324219 C 27.269531 12.054688 27.082031 11.8125 26.867188 11.601562 C 26.761719 11.496094 26.648438 11.394531 26.527344 11.304688 C 26.40625 11.207031 26.28125 11.136719 26.15625 11.054688 C 26.125 11.035156 26.09375 11.015625 26.0625 10.996094 L 26.054688 10.992188 C 25.8125 10.757812 25.5625 10.535156 25.316406 10.308594 C 24.890625 9.929688 24.457031 9.558594 24.0625 9.175781 C 23.964844 9.082031 23.871094 8.984375 23.785156 8.890625 C 23.699219 8.792969 23.617188 8.699219 23.558594 8.609375 C 23.527344 8.566406 23.503906 8.519531 23.492188 8.492188 C 23.492188 8.484375 23.484375 8.476562 23.484375 8.46875 C 23.484375 8.464844 23.484375 8.460938 23.484375 8.457031 C 23.480469 8.453125 23.484375 8.457031 23.484375 8.457031 C 23.484375 8.457031 23.488281 8.457031 23.488281 8.460938 L 23.484375 8.445312 C 23.476562 8.355469 23.476562 8.222656 23.484375 8.097656 C 23.492188 7.835938 23.515625 7.558594 23.539062 7.277344 L 23.613281 6.429688 C 23.632812 6.144531 23.652344 5.859375 23.667969 5.566406 C 23.683594 5.273438 23.6875 4.972656 23.675781 4.664062 C 23.667969 4.503906 23.652344 4.34375 23.625 4.167969 C 23.613281 4.082031 23.59375 3.992188 23.566406 3.886719 C 23.550781 3.835938 23.539062 3.789062 23.511719 3.722656 C 23.5 3.695312 23.484375 3.664062 23.472656 3.636719 L 23.445312 3.582031 C 23.292969 3.273438 23.097656 3 22.890625 2.75 C 22.46875 2.253906 21.972656 1.867188 21.453125 1.539062 C 20.933594 1.214844 20.390625 0.949219 19.835938 0.730469 C 18.722656 0.292969 17.546875 0.078125 16.378906 0.0195312 C 15.796875 -0.0078125 15.210938 -0.00390625 14.632812 0.03125 L 14.414062 0.046875 C 14.34375 0.0507812 14.269531 0.0585938 14.199219 0.0664062 C 14.054688 0.0820312 13.910156 0.09375 13.765625 0.113281 C 13.695312 0.125 13.621094 0.132812 13.550781 0.140625 L 13.335938 0.175781 L 13.226562 0.191406 C 13.191406 0.199219 13.15625 0.207031 13.117188 0.214844 C 13.046875 0.230469 12.972656 0.242188 12.902344 0.261719 C 12.753906 0.296875 12.613281 0.34375 12.472656 0.394531 C 12.332031 0.445312 12.191406 0.507812 12.058594 0.574219 C 11.921875 0.640625 11.792969 0.71875 11.664062 0.800781 C 11.605469 0.84375 11.539062 0.882812 11.480469 0.929688 C 11.417969 0.972656 11.355469 1.019531 11.300781 1.066406 C 10.832031 1.449219 10.4375 1.914062 10.09375 2.394531 C 9.75 2.875 9.449219 3.375 9.167969 3.867188 C 9.09375 4 9.019531 4.132812 8.945312 4.265625 C 10.597656 4.308594 12.238281 4.582031 13.84375 5.003906 C 14.859375 5.269531 15.871094 5.570312 16.835938 5.996094 C 17.792969 6.421875 18.765625 6.894531 19.605469 7.527344 C 19.773438 7.652344 19.683594 7.980469 19.445312 7.898438 C 18.484375 7.574219 17.554688 7.171875 16.585938 6.859375 C 15.605469 6.546875 14.640625 6.199219 13.644531 5.9375 C 11.945312 5.496094 10.183594 5.195312 8.421875 5.132812 C 7.988281 5.242188 7.542969 5.335938 7.089844 5.445312 L 6.6875 5.539062 C 6.550781 5.574219 6.414062 5.609375 6.277344 5.644531 C 6.003906 5.71875 5.734375 5.800781 5.460938 5.894531 C 5.191406 5.992188 4.917969 6.097656 4.65625 6.230469 C 4.390625 6.359375 4.132812 6.515625 3.898438 6.703125 C 3.664062 6.894531 3.453125 7.125 3.304688 7.386719 C 3.152344 7.652344 3.066406 7.945312 3.046875 8.230469 C 3.046875 8.253906 3.0625 8.28125 3.085938 8.289062 C 3.074219 8.335938 3.0625 8.378906 3.054688 8.425781 C 3.046875 8.433594 3.039062 8.441406 3.03125 8.449219 Z M 9.839844 23.082031 C 9.699219 23.515625 9.558594 23.945312 9.40625 24.363281 C 9.25 24.78125 9.082031 25.1875 8.898438 25.582031 C 8.808594 25.78125 8.710938 25.976562 8.613281 26.171875 C 8.515625 26.367188 8.414062 26.558594 8.308594 26.746094 C 8.089844 27.121094 7.859375 27.488281 7.589844 27.828125 C 7.324219 28.167969 7.027344 28.488281 6.71875 28.789062 C 6.578125 28.925781 6.429688 29.046875 6.292969 29.117188 C 6.15625 29.183594 6.058594 29.203125 5.941406 29.160156 C 5.824219 29.113281 5.695312 28.960938 5.617188 28.777344 C 5.597656 28.730469 5.582031 28.683594 5.566406 28.632812 C 5.550781 28.582031 5.53125 28.53125 5.519531 28.476562 L 5.488281 28.320312 C 5.476562 28.265625 5.472656 28.210938 5.464844 28.160156 C 5.457031 28.105469 5.460938 28.050781 5.457031 27.996094 L 5.453125 27.914062 L 5.457031 27.832031 C 5.460938 27.777344 5.460938 27.722656 5.46875 27.667969 L 5.492188 27.503906 C 5.527344 27.285156 5.59375 27.074219 5.679688 26.867188 C 5.703125 26.816406 5.726562 26.765625 5.75 26.71875 L 5.828125 26.570312 C 5.855469 26.519531 5.886719 26.476562 5.914062 26.425781 C 5.945312 26.378906 5.976562 26.332031 6.007812 26.289062 C 6.136719 26.105469 6.28125 25.9375 6.4375 25.785156 C 6.59375 25.628906 6.761719 25.476562 6.933594 25.335938 C 7.105469 25.195312 7.277344 25.058594 7.453125 24.917969 C 7.542969 24.847656 7.628906 24.777344 7.71875 24.707031 C 7.804688 24.636719 7.894531 24.566406 7.980469 24.492188 C 8.15625 24.347656 8.328125 24.195312 8.503906 24.039062 C 8.679688 23.882812 8.851562 23.722656 9.023438 23.558594 C 9.191406 23.390625 9.363281 23.21875 9.523438 23.039062 C 9.714844 22.824219 9.898438 22.597656 10.0625 22.355469 Z M 17.101562 16.554688 C 16.910156 16.734375 16.691406 16.894531 16.449219 17.023438 C 15.964844 17.285156 15.40625 17.429688 14.84375 17.519531 C 14.277344 17.613281 13.699219 17.660156 13.105469 17.746094 C 12.808594 17.789062 12.511719 17.851562 12.210938 17.9375 C 12.140625 17.957031 12.070312 17.976562 12.003906 18 C 11.996094 17.941406 11.984375 17.882812 11.972656 17.828125 C 11.914062 17.550781 11.820312 17.285156 11.710938 17.039062 C 11.484375 16.542969 11.183594 16.097656 10.867188 15.699219 C 10.375 15.078125 9.863281 14.542969 9.476562 14 C 11.011719 14.667969 12.617188 15.175781 14.253906 15.53125 C 15.339844 15.765625 16.4375 15.9375 17.542969 16.035156 C 17.410156 16.222656 17.265625 16.398438 17.101562 16.554688 Z M 21.40625 10.605469 C 21.875 10.578125 22.34375 10.558594 22.808594 10.570312 C 23.363281 10.585938 23.914062 10.640625 24.449219 10.769531 C 24.980469 10.894531 25.492188 11.097656 25.9375 11.398438 C 26.167969 11.546875 26.367188 11.714844 26.539062 11.910156 C 26.710938 12.109375 26.859375 12.328125 26.96875 12.558594 C 27.078125 12.789062 27.148438 13.035156 27.164062 13.277344 C 27.183594 13.515625 27.140625 13.75 27.046875 13.953125 C 26.953125 14.15625 26.804688 14.332031 26.625 14.464844 C 26.441406 14.601562 26.222656 14.707031 25.988281 14.78125 C 25.753906 14.855469 25.5 14.90625 25.242188 14.9375 C 24.980469 14.972656 24.714844 14.992188 24.441406 15 C 23.328125 15.039062 22.214844 15.070312 21.105469 15.03125 L 20.691406 15.019531 L 20.273438 15 C 19.996094 14.988281 19.71875 14.964844 19.445312 14.949219 C 19.410156 14.945312 19.378906 14.941406 19.347656 14.941406 C 19.371094 14.886719 19.390625 14.835938 19.410156 14.785156 C 19.4375 14.714844 19.46875 14.644531 19.492188 14.578125 C 19.546875 14.4375 19.597656 14.300781 19.644531 14.160156 L 19.789062 13.75 C 19.832031 13.613281 19.875 13.480469 19.921875 13.347656 C 20.105469 12.816406 20.289062 12.296875 20.539062 11.8125 C 20.660156 11.570312 20.800781 11.335938 20.960938 11.117188 C 21.09375 10.9375 21.242188 10.765625 21.40625 10.605469 Z M 9.402344 8.867188 C 9.914062 9.082031 10.433594 9.304688 10.960938 9.519531 C 11.226562 9.625 11.492188 9.730469 11.765625 9.832031 C 11.902344 9.878906 12.039062 9.929688 12.175781 9.972656 C 12.316406 10.015625 12.453125 10.0625 12.59375 10.101562 C 13.707031 10.441406 14.855469 10.648438 16.003906 10.734375 C 17.152344 10.832031 18.296875 10.804688 19.433594 10.742188 C 19.921875 10.714844 20.40625 10.675781 20.886719 10.640625 C 20.808594 10.6875 20.726562 10.742188 20.652344 10.796875 C 20.398438 10.976562 20.175781 11.195312 19.972656 11.429688 C 19.570312 11.90625 19.273438 12.441406 19.019531 12.980469 C 18.957031 13.113281 18.894531 13.25 18.835938 13.382812 L 18.667969 13.78125 L 18.5 14.171875 C 18.445312 14.300781 18.386719 14.425781 18.328125 14.550781 C 18.285156 14.648438 18.242188 14.742188 18.199219 14.835938 C 18.0625 14.820312 17.925781 14.804688 17.789062 14.789062 C 16.691406 14.660156 15.597656 14.488281 14.515625 14.269531 C 13.433594 14.054688 12.363281 13.789062 11.304688 13.46875 C 10.449219 13.203125 9.601562 12.90625 8.769531 12.566406 C 8.628906 12.085938 8.554688 11.578125 8.558594 11.058594 C 8.558594 10.28125 8.722656 9.492188 9.074219 8.734375 C 9.183594 8.777344 9.292969 8.824219 9.402344 8.867188 Z M 3.246094 8.609375 C 3.636719 8.328125 4.082031 8.128906 4.546875 8.003906 C 4.585938 7.996094 4.625 7.988281 4.664062 7.984375 C 4.933594 7.941406 5.203125 7.917969 5.472656 7.917969 C 5.605469 7.914062 5.742188 7.921875 5.875 7.925781 C 6.011719 7.9375 6.144531 7.941406 6.277344 7.960938 C 6.816406 8.015625 7.339844 8.136719 7.859375 8.296875 C 8.179688 8.398438 8.496094 8.511719 8.816406 8.636719 C 8.570312 8.890625 8.359375 9.183594 8.183594 9.5 C 7.933594 9.949219 7.757812 10.449219 7.65625 10.964844 C 7.589844 11.316406 7.5625 11.679688 7.570312 12.042969 C 7.273438 11.90625 6.984375 11.765625 6.691406 11.621094 C 6.445312 11.492188 6.199219 11.367188 5.957031 11.230469 C 5.835938 11.164062 5.710938 11.097656 5.589844 11.027344 L 5.230469 10.820312 C 4.984375 10.679688 4.753906 10.535156 4.53125 10.382812 C 4.308594 10.230469 4.097656 10.0625 3.914062 9.871094 C 3.734375 9.679688 3.570312 9.464844 3.445312 9.226562 C 3.378906 9.109375 3.324219 8.984375 3.273438 8.855469 L 3.238281 8.757812 C 3.226562 8.726562 3.210938 8.691406 3.207031 8.667969 C 3.203125 8.65625 3.199219 8.644531 3.195312 8.632812 C 3.210938 8.628906 3.230469 8.621094 3.246094 8.609375 Z M 3.246094 8.609375 " fill-opacity="1" fill-rule="nonzero"/></g></svg>